<svg xmlns="http://www.w3.org/2000/svg" version="1.1" xmlns:xlink="http://www.w3.org/1999/xlink" width="512" height="512"><svg id="SvgjsSvg1106" xmlns="http://www.w3.org/2000/svg" version="1.1" xmlns:xlink="http://www.w3.org/1999/xlink" viewBox="0 0 512 512">
  <!-- Generator: Adobe Illustrator 29.3.1, SVG Export Plug-In . SVG Version: 2.1.0 Build 151)  -->
  <defs>
    <style>
      .st0 {
        fill: #fff;
      }

      .st1 {
        fill: #38ad4e;
      }
    </style>
  </defs>
  <g>
    <polygon class="st1" points="3.2 72.6 3.2 447.3 377.9 447.3 377.9 394.4 377.9 306.4 377.9 72.6 3.2 72.6"></polygon>
    <path class="st0" d="M184.5,403.4c-20.1,0-38.5-3.6-55.2-10.7-16.8-7.2-31.2-17.2-43.4-30.1-12.2-12.9-21.6-28.4-28.4-46.6-6.7-18.2-10.1-38.4-10.1-60.8s3.7-39.5,11.2-57.6c7.4-18,17.7-33.8,30.7-47.3,13-13.5,28.6-24.1,46.6-31.8s37.7-11.6,58.9-11.6,33.7,2.2,48.8,6.7c15,4.4,28.4,10.9,40.2,19.3,11.7,8.5,21.8,18.6,30.3,30.5,8.4,11.9,14.7,25.4,18.7,40.6h-79.5c-4.9-10.6-12.6-18.8-23.2-24.5-10.6-5.7-22.8-8.6-36.5-8.6s-21.9,2.1-31.4,6.2c-9.5,4.2-17.5,10-24.3,17.4-6.7,7.4-11.9,16.2-15.5,26.2-3.6,10-5.4,20.9-5.4,32.7,0,26.9,7.6,48,22.8,63.1,15.2,15.2,36.2,22.8,63.2,22.8s28.4-2.6,39.7-7.7c11.3-5.2,19.8-12.5,25.6-21.9v-23.2h-64.9v-47.7h131v160.2h-66.2v-27.1c-10,10-22.1,17.8-36.1,23.2-14,5.4-29.9,8.2-47.7,8.2Z"></path>
  </g>
  <rect class="st1" x="424.4" y="310.8" width="85.6" height="85.6"></rect>
</svg><style>@media (prefers-color-scheme: light) { :root { filter: none; } }
@media (prefers-color-scheme: dark) { :root { filter: none; } }
</style></svg>